<mxfile host="Electron" agent="Mozilla/5.0 (X11; Linux x86_64) AppleWebKit/537.36 (KHTML, like Gecko) draw.io/26.0.16 Chrome/132.0.6834.196 Electron/34.2.0 Safari/537.36" version="26.0.16">
  <diagram name="Page-1" id="2a216829-ef6e-dabb-86c1-c78162f3ba2b">
    <mxGraphModel dx="1881" dy="1005" grid="1" gridSize="10" guides="1" tooltips="1" connect="1" arrows="1" fold="1" page="1" pageScale="1" pageWidth="850" pageHeight="1100" background="none" math="0" shadow="0">
      <root>
        <mxCell id="0" />
        <mxCell id="1" parent="0" />
        <mxCell id="W46r5qOGl9HjsOyR8-U1-98" value="" style="rounded=1;whiteSpace=wrap;html=1;fillColor=none;dashed=1;" vertex="1" parent="1">
          <mxGeometry x="-20" y="540" width="340" height="100" as="geometry" />
        </mxCell>
        <mxCell id="W46r5qOGl9HjsOyR8-U1-113" value="" style="rounded=1;whiteSpace=wrap;html=1;fillColor=none;dashed=1;" vertex="1" parent="1">
          <mxGeometry x="170" y="1100" width="350" height="440" as="geometry" />
        </mxCell>
        <mxCell id="W46r5qOGl9HjsOyR8-U1-155" value="" style="rounded=1;whiteSpace=wrap;html=1;fillColor=none;dashed=1;" vertex="1" parent="1">
          <mxGeometry x="720" y="960" width="900" height="470" as="geometry" />
        </mxCell>
        <mxCell id="W46r5qOGl9HjsOyR8-U1-109" value="" style="rounded=1;whiteSpace=wrap;html=1;fillColor=none;dashed=1;" vertex="1" parent="1">
          <mxGeometry x="170" y="780" width="350" height="300" as="geometry" />
        </mxCell>
        <mxCell id="W46r5qOGl9HjsOyR8-U1-106" value="" style="rounded=1;whiteSpace=wrap;html=1;fillColor=none;dashed=1;" vertex="1" parent="1">
          <mxGeometry x="170" y="660" width="150" height="100" as="geometry" />
        </mxCell>
        <mxCell id="W46r5qOGl9HjsOyR8-U1-96" value="" style="rounded=1;whiteSpace=wrap;html=1;fillColor=none;dashed=1;" vertex="1" parent="1">
          <mxGeometry x="500" y="530" width="220" height="240" as="geometry" />
        </mxCell>
        <mxCell id="W46r5qOGl9HjsOyR8-U1-95" value="" style="rounded=1;whiteSpace=wrap;html=1;fillColor=none;dashed=1;" vertex="1" parent="1">
          <mxGeometry x="740" y="660" width="350" height="200" as="geometry" />
        </mxCell>
        <mxCell id="W46r5qOGl9HjsOyR8-U1-94" value="" style="rounded=1;whiteSpace=wrap;html=1;fillColor=none;dashed=1;" vertex="1" parent="1">
          <mxGeometry x="1230" y="520" width="350" height="270" as="geometry" />
        </mxCell>
        <mxCell id="W46r5qOGl9HjsOyR8-U1-97" value="" style="rounded=1;whiteSpace=wrap;html=1;fillColor=none;dashed=1;" vertex="1" parent="1">
          <mxGeometry x="740" y="200" width="310" height="440" as="geometry" />
        </mxCell>
        <mxCell id="W46r5qOGl9HjsOyR8-U1-6" style="edgeStyle=orthogonalEdgeStyle;rounded=0;orthogonalLoop=1;jettySize=auto;html=1;entryX=0.5;entryY=0;entryDx=0;entryDy=0;" edge="1" parent="1" source="7a84cebc1def654-1" target="W46r5qOGl9HjsOyR8-U1-3">
          <mxGeometry relative="1" as="geometry" />
        </mxCell>
        <mxCell id="7a84cebc1def654-1" value="" style="shape=mxgraph.bpmn.shape;html=1;verticalLabelPosition=bottom;labelBackgroundColor=#ffffff;verticalAlign=top;perimeter=ellipsePerimeter;outline=standard;symbol=general;" parent="1" vertex="1">
          <mxGeometry x="785" y="140" width="50" height="50" as="geometry" />
        </mxCell>
        <mxCell id="7a84cebc1def654-26" value="" style="shape=mxgraph.bpmn.shape;html=1;verticalLabelPosition=bottom;labelBackgroundColor=#ffffff;verticalAlign=top;perimeter=ellipsePerimeter;outline=end;symbol=general;" parent="1" vertex="1">
          <mxGeometry x="1070" y="255.00000000000006" width="50" height="50" as="geometry" />
        </mxCell>
        <mxCell id="W46r5qOGl9HjsOyR8-U1-13" style="edgeStyle=orthogonalEdgeStyle;rounded=0;orthogonalLoop=1;jettySize=auto;html=1;entryX=0.5;entryY=0;entryDx=0;entryDy=0;exitX=0.5;exitY=1;exitDx=0;exitDy=0;" edge="1" parent="1" source="W46r5qOGl9HjsOyR8-U1-102" target="W46r5qOGl9HjsOyR8-U1-12">
          <mxGeometry relative="1" as="geometry" />
        </mxCell>
        <mxCell id="W46r5qOGl9HjsOyR8-U1-103" style="edgeStyle=orthogonalEdgeStyle;rounded=0;orthogonalLoop=1;jettySize=auto;html=1;entryX=0.5;entryY=0;entryDx=0;entryDy=0;" edge="1" parent="1" source="W46r5qOGl9HjsOyR8-U1-1" target="W46r5qOGl9HjsOyR8-U1-102">
          <mxGeometry relative="1" as="geometry" />
        </mxCell>
        <mxCell id="W46r5qOGl9HjsOyR8-U1-1" value="сохранить решение" style="rounded=1;whiteSpace=wrap;html=1;" vertex="1" parent="1">
          <mxGeometry x="750" y="350" width="120" height="60" as="geometry" />
        </mxCell>
        <mxCell id="W46r5qOGl9HjsOyR8-U1-5" style="edgeStyle=orthogonalEdgeStyle;rounded=0;orthogonalLoop=1;jettySize=auto;html=1;" edge="1" parent="1" source="W46r5qOGl9HjsOyR8-U1-25" target="7a84cebc1def654-26">
          <mxGeometry relative="1" as="geometry" />
        </mxCell>
        <mxCell id="W46r5qOGl9HjsOyR8-U1-3" value="шаг&amp;nbsp;&lt;span style=&quot;background-color: transparent; color: light-dark(rgb(0, 0, 0), rgb(255, 255, 255));&quot;&gt;активный?&lt;/span&gt;&lt;div&gt;&lt;span style=&quot;background-color: transparent; color: light-dark(rgb(0, 0, 0), rgb(255, 255, 255));&quot;&gt;согласующий&lt;/span&gt;&lt;/div&gt;&lt;div&gt;&lt;span style=&quot;background-color: transparent; color: light-dark(rgb(0, 0, 0), rgb(255, 255, 255));&quot;&gt;активный?&lt;/span&gt;&lt;/div&gt;&lt;div&gt;&lt;span style=&quot;background-color: transparent; color: light-dark(rgb(0, 0, 0), rgb(255, 255, 255));&quot;&gt;согласующий уполномочен?&lt;/span&gt;&lt;/div&gt;" style="shape=hexagon;perimeter=hexagonPerimeter2;whiteSpace=wrap;html=1;fixedSize=1;" vertex="1" parent="1">
          <mxGeometry x="750" y="240" width="120" height="80" as="geometry" />
        </mxCell>
        <mxCell id="W46r5qOGl9HjsOyR8-U1-4" value="нет" style="text;html=1;align=center;verticalAlign=middle;resizable=0;points=[];autosize=1;strokeColor=none;fillColor=none;" vertex="1" parent="1">
          <mxGeometry x="865" y="250" width="40" height="30" as="geometry" />
        </mxCell>
        <mxCell id="W46r5qOGl9HjsOyR8-U1-10" style="edgeStyle=orthogonalEdgeStyle;rounded=0;orthogonalLoop=1;jettySize=auto;html=1;entryX=0.5;entryY=0;entryDx=0;entryDy=0;" edge="1" parent="1" source="W46r5qOGl9HjsOyR8-U1-3" target="W46r5qOGl9HjsOyR8-U1-1">
          <mxGeometry relative="1" as="geometry">
            <mxPoint x="810" y="370" as="targetPoint" />
          </mxGeometry>
        </mxCell>
        <mxCell id="W46r5qOGl9HjsOyR8-U1-14" style="edgeStyle=orthogonalEdgeStyle;rounded=0;orthogonalLoop=1;jettySize=auto;html=1;exitX=1;exitY=0.5;exitDx=0;exitDy=0;entryX=0;entryY=0.5;entryDx=0;entryDy=0;" edge="1" parent="1" source="W46r5qOGl9HjsOyR8-U1-12" target="W46r5qOGl9HjsOyR8-U1-79">
          <mxGeometry relative="1" as="geometry">
            <mxPoint x="930" y="590" as="targetPoint" />
          </mxGeometry>
        </mxCell>
        <mxCell id="W46r5qOGl9HjsOyR8-U1-15" style="edgeStyle=orthogonalEdgeStyle;rounded=0;orthogonalLoop=1;jettySize=auto;html=1;" edge="1" parent="1" source="W46r5qOGl9HjsOyR8-U1-12">
          <mxGeometry relative="1" as="geometry">
            <mxPoint x="650" y="590" as="targetPoint" />
          </mxGeometry>
        </mxCell>
        <mxCell id="W46r5qOGl9HjsOyR8-U1-16" style="edgeStyle=orthogonalEdgeStyle;rounded=0;orthogonalLoop=1;jettySize=auto;html=1;exitX=0.5;exitY=1;exitDx=0;exitDy=0;entryX=0.5;entryY=0;entryDx=0;entryDy=0;" edge="1" parent="1" source="W46r5qOGl9HjsOyR8-U1-12" target="W46r5qOGl9HjsOyR8-U1-60">
          <mxGeometry relative="1" as="geometry">
            <mxPoint x="809" y="680" as="targetPoint" />
          </mxGeometry>
        </mxCell>
        <mxCell id="W46r5qOGl9HjsOyR8-U1-12" value="тип шага" style="shape=hexagon;perimeter=hexagonPerimeter2;whiteSpace=wrap;html=1;fixedSize=1;" vertex="1" parent="1">
          <mxGeometry x="750" y="550" width="120" height="80" as="geometry" />
        </mxCell>
        <mxCell id="W46r5qOGl9HjsOyR8-U1-17" value="&lt;font style=&quot;font-size: 9px;&quot;&gt;SERIAL&lt;/font&gt;" style="text;html=1;align=center;verticalAlign=middle;resizable=0;points=[];autosize=1;strokeColor=none;fillColor=none;" vertex="1" parent="1">
          <mxGeometry x="660" y="565" width="60" height="30" as="geometry" />
        </mxCell>
        <mxCell id="W46r5qOGl9HjsOyR8-U1-18" value="&lt;font style=&quot;font-size: 9px;&quot;&gt;PARALLEL_ANY_OFF&lt;/font&gt;" style="text;html=1;align=center;verticalAlign=middle;resizable=0;points=[];autosize=1;strokeColor=none;fillColor=none;" vertex="1" parent="1">
          <mxGeometry x="880" y="565" width="110" height="30" as="geometry" />
        </mxCell>
        <mxCell id="W46r5qOGl9HjsOyR8-U1-19" value="&lt;font style=&quot;font-size: 9px;&quot;&gt;PARALLEL_ALL_OFF&lt;/font&gt;" style="text;html=1;align=center;verticalAlign=middle;resizable=0;points=[];autosize=1;strokeColor=none;fillColor=none;" vertex="1" parent="1">
          <mxGeometry x="755" y="635" width="110" height="30" as="geometry" />
        </mxCell>
        <mxCell id="W46r5qOGl9HjsOyR8-U1-23" style="edgeStyle=orthogonalEdgeStyle;rounded=0;orthogonalLoop=1;jettySize=auto;html=1;" edge="1" parent="1" source="W46r5qOGl9HjsOyR8-U1-20" target="W46r5qOGl9HjsOyR8-U1-22">
          <mxGeometry relative="1" as="geometry" />
        </mxCell>
        <mxCell id="W46r5qOGl9HjsOyR8-U1-32" style="edgeStyle=orthogonalEdgeStyle;rounded=0;orthogonalLoop=1;jettySize=auto;html=1;entryX=0.5;entryY=0;entryDx=0;entryDy=0;" edge="1" parent="1" source="W46r5qOGl9HjsOyR8-U1-20" target="W46r5qOGl9HjsOyR8-U1-31">
          <mxGeometry relative="1" as="geometry" />
        </mxCell>
        <mxCell id="W46r5qOGl9HjsOyR8-U1-20" value="решение&amp;nbsp;&lt;div&gt;об отказе?&lt;/div&gt;" style="shape=hexagon;perimeter=hexagonPerimeter2;whiteSpace=wrap;html=1;fixedSize=1;" vertex="1" parent="1">
          <mxGeometry x="530" y="550" width="120" height="80" as="geometry" />
        </mxCell>
        <mxCell id="W46r5qOGl9HjsOyR8-U1-21" value="" style="shape=mxgraph.bpmn.shape;html=1;verticalLabelPosition=bottom;labelBackgroundColor=#ffffff;verticalAlign=top;perimeter=ellipsePerimeter;outline=end;symbol=general;" vertex="1" parent="1">
          <mxGeometry x="-110" y="565" width="50" height="50" as="geometry" />
        </mxCell>
        <mxCell id="W46r5qOGl9HjsOyR8-U1-24" style="edgeStyle=orthogonalEdgeStyle;rounded=0;orthogonalLoop=1;jettySize=auto;html=1;entryX=1;entryY=0.5;entryDx=0;entryDy=0;" edge="1" parent="1" source="W46r5qOGl9HjsOyR8-U1-170" target="W46r5qOGl9HjsOyR8-U1-21">
          <mxGeometry relative="1" as="geometry" />
        </mxCell>
        <mxCell id="W46r5qOGl9HjsOyR8-U1-22" value="завершить&lt;div&gt;маршрут и все его составляющие&lt;/div&gt;" style="rounded=1;whiteSpace=wrap;html=1;" vertex="1" parent="1">
          <mxGeometry x="180" y="560" width="120" height="60" as="geometry" />
        </mxCell>
        <mxCell id="W46r5qOGl9HjsOyR8-U1-26" value="" style="edgeStyle=orthogonalEdgeStyle;rounded=0;orthogonalLoop=1;jettySize=auto;html=1;" edge="1" parent="1" source="W46r5qOGl9HjsOyR8-U1-3" target="W46r5qOGl9HjsOyR8-U1-25">
          <mxGeometry relative="1" as="geometry">
            <mxPoint x="870" y="280" as="sourcePoint" />
            <mxPoint x="1610" y="395" as="targetPoint" />
          </mxGeometry>
        </mxCell>
        <mxCell id="W46r5qOGl9HjsOyR8-U1-25" value="вернуть ошибку" style="rounded=1;whiteSpace=wrap;html=1;" vertex="1" parent="1">
          <mxGeometry x="910" y="250" width="120" height="60" as="geometry" />
        </mxCell>
        <mxCell id="W46r5qOGl9HjsOyR8-U1-30" value="да" style="text;html=1;align=center;verticalAlign=middle;resizable=0;points=[];autosize=1;strokeColor=none;fillColor=none;" vertex="1" parent="1">
          <mxGeometry x="495" y="558" width="40" height="30" as="geometry" />
        </mxCell>
        <mxCell id="W46r5qOGl9HjsOyR8-U1-35" style="edgeStyle=orthogonalEdgeStyle;rounded=0;orthogonalLoop=1;jettySize=auto;html=1;entryX=1;entryY=0.5;entryDx=0;entryDy=0;" edge="1" parent="1" source="W46r5qOGl9HjsOyR8-U1-31" target="W46r5qOGl9HjsOyR8-U1-34">
          <mxGeometry relative="1" as="geometry" />
        </mxCell>
        <mxCell id="W46r5qOGl9HjsOyR8-U1-38" style="edgeStyle=orthogonalEdgeStyle;rounded=1;orthogonalLoop=1;jettySize=auto;html=1;entryX=1;entryY=0.5;entryDx=0;entryDy=0;curved=0;" edge="1" parent="1" source="W46r5qOGl9HjsOyR8-U1-31" target="W46r5qOGl9HjsOyR8-U1-55">
          <mxGeometry relative="1" as="geometry">
            <mxPoint x="590" y="790" as="targetPoint" />
            <Array as="points">
              <mxPoint x="590" y="820" />
            </Array>
          </mxGeometry>
        </mxCell>
        <mxCell id="W46r5qOGl9HjsOyR8-U1-31" value="есть другие не голосовавшие согласующие на этом шаге?" style="shape=hexagon;perimeter=hexagonPerimeter2;whiteSpace=wrap;html=1;fixedSize=1;" vertex="1" parent="1">
          <mxGeometry x="530" y="670" width="120" height="80" as="geometry" />
        </mxCell>
        <mxCell id="W46r5qOGl9HjsOyR8-U1-33" value="нет" style="text;html=1;align=center;verticalAlign=middle;resizable=0;points=[];autosize=1;strokeColor=none;fillColor=none;" vertex="1" parent="1">
          <mxGeometry x="550" y="630" width="40" height="30" as="geometry" />
        </mxCell>
        <mxCell id="W46r5qOGl9HjsOyR8-U1-36" style="edgeStyle=orthogonalEdgeStyle;rounded=1;orthogonalLoop=1;jettySize=auto;html=1;entryX=1;entryY=0.5;entryDx=0;entryDy=0;curved=0;" edge="1" parent="1" source="W46r5qOGl9HjsOyR8-U1-34" target="W46r5qOGl9HjsOyR8-U1-114">
          <mxGeometry relative="1" as="geometry">
            <mxPoint x="60" y="618" as="targetPoint" />
          </mxGeometry>
        </mxCell>
        <mxCell id="W46r5qOGl9HjsOyR8-U1-34" value="активировать&lt;div&gt;следующего&amp;nbsp;&lt;/div&gt;&lt;div&gt;согласующего&lt;/div&gt;&lt;div&gt;на этом шаге&lt;/div&gt;" style="rounded=1;whiteSpace=wrap;html=1;" vertex="1" parent="1">
          <mxGeometry x="180" y="680" width="120" height="60" as="geometry" />
        </mxCell>
        <mxCell id="W46r5qOGl9HjsOyR8-U1-37" value="да" style="text;html=1;align=center;verticalAlign=middle;resizable=0;points=[];autosize=1;strokeColor=none;fillColor=none;" vertex="1" parent="1">
          <mxGeometry x="500" y="678" width="40" height="30" as="geometry" />
        </mxCell>
        <mxCell id="W46r5qOGl9HjsOyR8-U1-39" value="нет" style="text;html=1;align=center;verticalAlign=middle;resizable=0;points=[];autosize=1;strokeColor=none;fillColor=none;" vertex="1" parent="1">
          <mxGeometry x="550" y="748" width="40" height="30" as="geometry" />
        </mxCell>
        <mxCell id="W46r5qOGl9HjsOyR8-U1-41" style="edgeStyle=orthogonalEdgeStyle;rounded=0;orthogonalLoop=1;jettySize=auto;html=1;entryX=1;entryY=0.5;entryDx=0;entryDy=0;" edge="1" parent="1" source="W46r5qOGl9HjsOyR8-U1-40" target="W46r5qOGl9HjsOyR8-U1-46">
          <mxGeometry relative="1" as="geometry">
            <mxPoint x="450" y="1030" as="targetPoint" />
          </mxGeometry>
        </mxCell>
        <mxCell id="W46r5qOGl9HjsOyR8-U1-44" style="edgeStyle=orthogonalEdgeStyle;rounded=0;orthogonalLoop=1;jettySize=auto;html=1;exitX=0.5;exitY=1;exitDx=0;exitDy=0;" edge="1" parent="1" source="W46r5qOGl9HjsOyR8-U1-40">
          <mxGeometry relative="1" as="geometry">
            <mxPoint x="435" y="1120" as="targetPoint" />
          </mxGeometry>
        </mxCell>
        <mxCell id="W46r5qOGl9HjsOyR8-U1-40" value="есть ещё шаги в этой группе?" style="shape=hexagon;perimeter=hexagonPerimeter2;whiteSpace=wrap;html=1;fixedSize=1;" vertex="1" parent="1">
          <mxGeometry x="375" y="990" width="120" height="80" as="geometry" />
        </mxCell>
        <mxCell id="W46r5qOGl9HjsOyR8-U1-42" value="да" style="text;html=1;align=center;verticalAlign=middle;resizable=0;points=[];autosize=1;strokeColor=none;fillColor=none;" vertex="1" parent="1">
          <mxGeometry x="345" y="998" width="40" height="30" as="geometry" />
        </mxCell>
        <mxCell id="W46r5qOGl9HjsOyR8-U1-49" style="edgeStyle=orthogonalEdgeStyle;rounded=1;orthogonalLoop=1;jettySize=auto;html=1;entryX=0.5;entryY=1;entryDx=0;entryDy=0;exitX=0.5;exitY=1;exitDx=0;exitDy=0;curved=0;" edge="1" parent="1" source="W46r5qOGl9HjsOyR8-U1-43" target="W46r5qOGl9HjsOyR8-U1-48">
          <mxGeometry relative="1" as="geometry">
            <Array as="points">
              <mxPoint x="435" y="1440" />
              <mxPoint x="240" y="1440" />
            </Array>
          </mxGeometry>
        </mxCell>
        <mxCell id="W46r5qOGl9HjsOyR8-U1-52" style="edgeStyle=orthogonalEdgeStyle;rounded=1;orthogonalLoop=1;jettySize=auto;html=1;entryX=1;entryY=0.5;entryDx=0;entryDy=0;exitX=0;exitY=0.5;exitDx=0;exitDy=0;curved=0;" edge="1" parent="1" source="W46r5qOGl9HjsOyR8-U1-43" target="W46r5qOGl9HjsOyR8-U1-22">
          <mxGeometry relative="1" as="geometry">
            <Array as="points">
              <mxPoint x="340" y="1380" />
              <mxPoint x="340" y="590" />
            </Array>
          </mxGeometry>
        </mxCell>
        <mxCell id="W46r5qOGl9HjsOyR8-U1-43" value="есть ешё группы&lt;div&gt;в маршруте?&lt;/div&gt;" style="shape=hexagon;perimeter=hexagonPerimeter2;whiteSpace=wrap;html=1;fixedSize=1;" vertex="1" parent="1">
          <mxGeometry x="375" y="1340" width="120" height="80" as="geometry" />
        </mxCell>
        <mxCell id="W46r5qOGl9HjsOyR8-U1-45" value="нет" style="text;html=1;align=center;verticalAlign=middle;resizable=0;points=[];autosize=1;strokeColor=none;fillColor=none;" vertex="1" parent="1">
          <mxGeometry x="395" y="1070" width="40" height="30" as="geometry" />
        </mxCell>
        <mxCell id="W46r5qOGl9HjsOyR8-U1-47" style="edgeStyle=orthogonalEdgeStyle;rounded=0;orthogonalLoop=1;jettySize=auto;html=1;entryX=0.5;entryY=1;entryDx=0;entryDy=0;" edge="1" parent="1" source="W46r5qOGl9HjsOyR8-U1-46" target="W46r5qOGl9HjsOyR8-U1-34">
          <mxGeometry relative="1" as="geometry" />
        </mxCell>
        <mxCell id="W46r5qOGl9HjsOyR8-U1-46" value="активировать&lt;div&gt;следующий&lt;/div&gt;&lt;div&gt;шаг&lt;/div&gt;" style="rounded=1;whiteSpace=wrap;html=1;" vertex="1" parent="1">
          <mxGeometry x="180" y="1000" width="120" height="60" as="geometry" />
        </mxCell>
        <mxCell id="W46r5qOGl9HjsOyR8-U1-50" style="edgeStyle=orthogonalEdgeStyle;rounded=0;orthogonalLoop=1;jettySize=auto;html=1;entryX=0.5;entryY=1;entryDx=0;entryDy=0;" edge="1" parent="1" source="W46r5qOGl9HjsOyR8-U1-48" target="W46r5qOGl9HjsOyR8-U1-46">
          <mxGeometry relative="1" as="geometry" />
        </mxCell>
        <mxCell id="W46r5qOGl9HjsOyR8-U1-48" value="активировать&lt;div&gt;следующую&amp;nbsp;&lt;/div&gt;&lt;div&gt;группу&lt;/div&gt;" style="rounded=1;whiteSpace=wrap;html=1;" vertex="1" parent="1">
          <mxGeometry x="180" y="1350" width="120" height="60" as="geometry" />
        </mxCell>
        <mxCell id="W46r5qOGl9HjsOyR8-U1-51" value="да" style="text;html=1;align=center;verticalAlign=middle;resizable=0;points=[];autosize=1;strokeColor=none;fillColor=none;" vertex="1" parent="1">
          <mxGeometry x="395" y="1410" width="40" height="30" as="geometry" />
        </mxCell>
        <mxCell id="W46r5qOGl9HjsOyR8-U1-53" value="нет" style="text;html=1;align=center;verticalAlign=middle;resizable=0;points=[];autosize=1;strokeColor=none;fillColor=none;" vertex="1" parent="1">
          <mxGeometry x="345" y="1350" width="40" height="30" as="geometry" />
        </mxCell>
        <mxCell id="W46r5qOGl9HjsOyR8-U1-56" style="edgeStyle=orthogonalEdgeStyle;rounded=0;orthogonalLoop=1;jettySize=auto;html=1;exitX=0.5;exitY=1;exitDx=0;exitDy=0;" edge="1" parent="1" source="W46r5qOGl9HjsOyR8-U1-119" target="W46r5qOGl9HjsOyR8-U1-40">
          <mxGeometry relative="1" as="geometry" />
        </mxCell>
        <mxCell id="W46r5qOGl9HjsOyR8-U1-120" style="edgeStyle=orthogonalEdgeStyle;rounded=0;orthogonalLoop=1;jettySize=auto;html=1;exitX=0.5;exitY=1;exitDx=0;exitDy=0;entryX=0.5;entryY=0;entryDx=0;entryDy=0;" edge="1" parent="1" source="W46r5qOGl9HjsOyR8-U1-55" target="W46r5qOGl9HjsOyR8-U1-119">
          <mxGeometry relative="1" as="geometry" />
        </mxCell>
        <mxCell id="W46r5qOGl9HjsOyR8-U1-55" value="завершить шаг" style="rounded=1;whiteSpace=wrap;html=1;" vertex="1" parent="1">
          <mxGeometry x="375" y="790" width="120" height="60" as="geometry" />
        </mxCell>
        <mxCell id="W46r5qOGl9HjsOyR8-U1-58" style="edgeStyle=orthogonalEdgeStyle;rounded=0;orthogonalLoop=1;jettySize=auto;html=1;entryX=0.5;entryY=0;entryDx=0;entryDy=0;exitX=0.457;exitY=1.006;exitDx=0;exitDy=0;exitPerimeter=0;" edge="1" parent="1" source="W46r5qOGl9HjsOyR8-U1-167" target="W46r5qOGl9HjsOyR8-U1-43">
          <mxGeometry relative="1" as="geometry" />
        </mxCell>
        <mxCell id="W46r5qOGl9HjsOyR8-U1-57" value="завершить группу" style="rounded=1;whiteSpace=wrap;html=1;" vertex="1" parent="1">
          <mxGeometry x="375" y="1120" width="120" height="60" as="geometry" />
        </mxCell>
        <mxCell id="W46r5qOGl9HjsOyR8-U1-62" style="edgeStyle=orthogonalEdgeStyle;rounded=0;orthogonalLoop=1;jettySize=auto;html=1;exitX=0.5;exitY=1;exitDx=0;exitDy=0;" edge="1" parent="1" source="W46r5qOGl9HjsOyR8-U1-60" target="W46r5qOGl9HjsOyR8-U1-92">
          <mxGeometry relative="1" as="geometry">
            <mxPoint x="810" y="790" as="targetPoint" />
            <Array as="points" />
          </mxGeometry>
        </mxCell>
        <mxCell id="W46r5qOGl9HjsOyR8-U1-69" style="edgeStyle=orthogonalEdgeStyle;rounded=0;orthogonalLoop=1;jettySize=auto;html=1;exitX=1;exitY=0.5;exitDx=0;exitDy=0;" edge="1" parent="1" source="W46r5qOGl9HjsOyR8-U1-60">
          <mxGeometry relative="1" as="geometry">
            <mxPoint x="940" y="709.9310344827586" as="targetPoint" />
          </mxGeometry>
        </mxCell>
        <mxCell id="W46r5qOGl9HjsOyR8-U1-60" value="решение&amp;nbsp;&lt;div&gt;об отказе?&lt;/div&gt;" style="shape=hexagon;perimeter=hexagonPerimeter2;whiteSpace=wrap;html=1;fixedSize=1;" vertex="1" parent="1">
          <mxGeometry x="750" y="670" width="120" height="80" as="geometry" />
        </mxCell>
        <mxCell id="W46r5qOGl9HjsOyR8-U1-68" value="да" style="text;html=1;align=center;verticalAlign=middle;resizable=0;points=[];autosize=1;strokeColor=none;fillColor=none;" vertex="1" parent="1">
          <mxGeometry x="770" y="748" width="40" height="30" as="geometry" />
        </mxCell>
        <mxCell id="W46r5qOGl9HjsOyR8-U1-70" value="нет" style="text;html=1;align=center;verticalAlign=middle;resizable=0;points=[];autosize=1;strokeColor=none;fillColor=none;" vertex="1" parent="1">
          <mxGeometry x="865" y="678" width="40" height="30" as="geometry" />
        </mxCell>
        <mxCell id="W46r5qOGl9HjsOyR8-U1-74" style="edgeStyle=orthogonalEdgeStyle;rounded=1;orthogonalLoop=1;jettySize=auto;html=1;exitX=0.5;exitY=1;exitDx=0;exitDy=0;entryX=1;entryY=0.5;entryDx=0;entryDy=0;curved=0;" edge="1" parent="1" source="W46r5qOGl9HjsOyR8-U1-73" target="W46r5qOGl9HjsOyR8-U1-55">
          <mxGeometry relative="1" as="geometry">
            <Array as="points">
              <mxPoint x="1000" y="880" />
              <mxPoint x="690" y="880" />
              <mxPoint x="690" y="820" />
            </Array>
          </mxGeometry>
        </mxCell>
        <mxCell id="W46r5qOGl9HjsOyR8-U1-77" style="edgeStyle=orthogonalEdgeStyle;rounded=0;orthogonalLoop=1;jettySize=auto;html=1;entryX=0;entryY=0.5;entryDx=0;entryDy=0;" edge="1" parent="1" source="W46r5qOGl9HjsOyR8-U1-73" target="W46r5qOGl9HjsOyR8-U1-76">
          <mxGeometry relative="1" as="geometry" />
        </mxCell>
        <mxCell id="W46r5qOGl9HjsOyR8-U1-73" value="есть другие не голосовавшие согласующие на этом шаге?" style="shape=hexagon;perimeter=hexagonPerimeter2;whiteSpace=wrap;html=1;fixedSize=1;" vertex="1" parent="1">
          <mxGeometry x="940" y="668" width="120" height="80" as="geometry" />
        </mxCell>
        <mxCell id="W46r5qOGl9HjsOyR8-U1-75" value="нет" style="text;html=1;align=center;verticalAlign=middle;resizable=0;points=[];autosize=1;strokeColor=none;fillColor=none;" vertex="1" parent="1">
          <mxGeometry x="960" y="748" width="40" height="30" as="geometry" />
        </mxCell>
        <mxCell id="W46r5qOGl9HjsOyR8-U1-76" value="" style="shape=mxgraph.bpmn.shape;html=1;verticalLabelPosition=bottom;labelBackgroundColor=#ffffff;verticalAlign=top;perimeter=ellipsePerimeter;outline=end;symbol=general;" vertex="1" parent="1">
          <mxGeometry x="1110" y="683" width="50" height="50" as="geometry" />
        </mxCell>
        <mxCell id="W46r5qOGl9HjsOyR8-U1-78" value="да" style="text;html=1;align=center;verticalAlign=middle;resizable=0;points=[];autosize=1;strokeColor=none;fillColor=none;" vertex="1" parent="1">
          <mxGeometry x="1050" y="678" width="40" height="30" as="geometry" />
        </mxCell>
        <mxCell id="W46r5qOGl9HjsOyR8-U1-81" style="edgeStyle=orthogonalEdgeStyle;rounded=1;orthogonalLoop=1;jettySize=auto;html=1;exitX=0.5;exitY=1;exitDx=0;exitDy=0;entryX=1;entryY=0.5;entryDx=0;entryDy=0;curved=0;" edge="1" parent="1" source="W46r5qOGl9HjsOyR8-U1-104" target="W46r5qOGl9HjsOyR8-U1-55">
          <mxGeometry relative="1" as="geometry">
            <mxPoint x="850" y="820" as="targetPoint" />
            <Array as="points">
              <mxPoint x="1320" y="880" />
              <mxPoint x="690" y="880" />
              <mxPoint x="690" y="820" />
            </Array>
          </mxGeometry>
        </mxCell>
        <mxCell id="W46r5qOGl9HjsOyR8-U1-83" style="edgeStyle=orthogonalEdgeStyle;rounded=0;orthogonalLoop=1;jettySize=auto;html=1;exitX=1;exitY=0.5;exitDx=0;exitDy=0;" edge="1" parent="1" source="W46r5qOGl9HjsOyR8-U1-79">
          <mxGeometry relative="1" as="geometry">
            <mxPoint x="1430" y="589.8333333333335" as="targetPoint" />
          </mxGeometry>
        </mxCell>
        <mxCell id="W46r5qOGl9HjsOyR8-U1-105" style="edgeStyle=orthogonalEdgeStyle;rounded=0;orthogonalLoop=1;jettySize=auto;html=1;entryX=0.5;entryY=0;entryDx=0;entryDy=0;" edge="1" parent="1" source="W46r5qOGl9HjsOyR8-U1-79" target="W46r5qOGl9HjsOyR8-U1-104">
          <mxGeometry relative="1" as="geometry" />
        </mxCell>
        <mxCell id="W46r5qOGl9HjsOyR8-U1-79" value="решение&amp;nbsp;&lt;div&gt;об отказе?&lt;/div&gt;" style="shape=hexagon;perimeter=hexagonPerimeter2;whiteSpace=wrap;html=1;fixedSize=1;" vertex="1" parent="1">
          <mxGeometry x="1260" y="550" width="120" height="80" as="geometry" />
        </mxCell>
        <mxCell id="W46r5qOGl9HjsOyR8-U1-82" value="нет" style="text;html=1;align=center;verticalAlign=middle;resizable=0;points=[];autosize=1;strokeColor=none;fillColor=none;" vertex="1" parent="1">
          <mxGeometry x="1275" y="630" width="40" height="30" as="geometry" />
        </mxCell>
        <mxCell id="W46r5qOGl9HjsOyR8-U1-84" value="да" style="text;html=1;align=center;verticalAlign=middle;resizable=0;points=[];autosize=1;strokeColor=none;fillColor=none;" vertex="1" parent="1">
          <mxGeometry x="1370" y="558" width="40" height="30" as="geometry" />
        </mxCell>
        <mxCell id="W46r5qOGl9HjsOyR8-U1-87" style="edgeStyle=orthogonalEdgeStyle;rounded=1;orthogonalLoop=1;jettySize=auto;html=1;entryX=1;entryY=0.5;entryDx=0;entryDy=0;curved=0;exitX=0.992;exitY=0.022;exitDx=0;exitDy=0;exitPerimeter=0;" edge="1" parent="1" source="W46r5qOGl9HjsOyR8-U1-88" target="W46r5qOGl9HjsOyR8-U1-55">
          <mxGeometry relative="1" as="geometry">
            <Array as="points">
              <mxPoint x="1490" y="880" />
              <mxPoint x="690" y="880" />
              <mxPoint x="690" y="820" />
            </Array>
          </mxGeometry>
        </mxCell>
        <mxCell id="W46r5qOGl9HjsOyR8-U1-89" style="edgeStyle=orthogonalEdgeStyle;rounded=0;orthogonalLoop=1;jettySize=auto;html=1;exitX=1;exitY=0.5;exitDx=0;exitDy=0;" edge="1" parent="1" source="W46r5qOGl9HjsOyR8-U1-86">
          <mxGeometry relative="1" as="geometry">
            <mxPoint x="1600" y="589.8333333333335" as="targetPoint" />
          </mxGeometry>
        </mxCell>
        <mxCell id="W46r5qOGl9HjsOyR8-U1-86" value="есть другие не голосовавшие согласующие на этом шаге?" style="shape=hexagon;perimeter=hexagonPerimeter2;whiteSpace=wrap;html=1;fixedSize=1;" vertex="1" parent="1">
          <mxGeometry x="1430" y="550" width="120" height="80" as="geometry" />
        </mxCell>
        <mxCell id="W46r5qOGl9HjsOyR8-U1-88" value="нет" style="text;html=1;align=center;verticalAlign=middle;resizable=0;points=[];autosize=1;strokeColor=none;fillColor=none;" vertex="1" parent="1">
          <mxGeometry x="1450" y="630" width="40" height="30" as="geometry" />
        </mxCell>
        <mxCell id="W46r5qOGl9HjsOyR8-U1-90" value="да" style="text;html=1;align=center;verticalAlign=middle;resizable=0;points=[];autosize=1;strokeColor=none;fillColor=none;" vertex="1" parent="1">
          <mxGeometry x="1540" y="558" width="40" height="30" as="geometry" />
        </mxCell>
        <mxCell id="W46r5qOGl9HjsOyR8-U1-91" value="" style="shape=mxgraph.bpmn.shape;html=1;verticalLabelPosition=bottom;labelBackgroundColor=#ffffff;verticalAlign=top;perimeter=ellipsePerimeter;outline=end;symbol=general;" vertex="1" parent="1">
          <mxGeometry x="1600" y="565" width="50" height="50" as="geometry" />
        </mxCell>
        <mxCell id="W46r5qOGl9HjsOyR8-U1-93" style="edgeStyle=orthogonalEdgeStyle;rounded=0;orthogonalLoop=1;jettySize=auto;html=1;entryX=1;entryY=0.5;entryDx=0;entryDy=0;" edge="1" parent="1" source="W46r5qOGl9HjsOyR8-U1-92" target="W46r5qOGl9HjsOyR8-U1-55">
          <mxGeometry relative="1" as="geometry" />
        </mxCell>
        <mxCell id="W46r5qOGl9HjsOyR8-U1-92" value="деактивировать&lt;div&gt;остальных согласующих&lt;/div&gt;&lt;div&gt;на шаге&lt;/div&gt;" style="rounded=1;whiteSpace=wrap;html=1;" vertex="1" parent="1">
          <mxGeometry x="750" y="790" width="120" height="60" as="geometry" />
        </mxCell>
        <mxCell id="W46r5qOGl9HjsOyR8-U1-102" value="&lt;div&gt;деактивировать&lt;/div&gt;&lt;div&gt;согласующего&lt;/div&gt;" style="rounded=1;whiteSpace=wrap;html=1;" vertex="1" parent="1">
          <mxGeometry x="750" y="440" width="120" height="60" as="geometry" />
        </mxCell>
        <mxCell id="W46r5qOGl9HjsOyR8-U1-104" value="деактивировать&lt;div&gt;остальных согласующих&lt;/div&gt;&lt;div&gt;на шаге&lt;/div&gt;" style="rounded=1;whiteSpace=wrap;html=1;" vertex="1" parent="1">
          <mxGeometry x="1260" y="700" width="120" height="60" as="geometry" />
        </mxCell>
        <mxCell id="W46r5qOGl9HjsOyR8-U1-114" value="" style="shape=mxgraph.bpmn.shape;html=1;verticalLabelPosition=bottom;labelBackgroundColor=#ffffff;verticalAlign=top;perimeter=ellipsePerimeter;outline=end;symbol=general;" vertex="1" parent="1">
          <mxGeometry x="100" y="685" width="50" height="50" as="geometry" />
        </mxCell>
        <mxCell id="W46r5qOGl9HjsOyR8-U1-156" style="edgeStyle=orthogonalEdgeStyle;rounded=0;orthogonalLoop=1;jettySize=auto;html=1;entryX=0.5;entryY=0;entryDx=0;entryDy=0;" edge="1" parent="1" source="W46r5qOGl9HjsOyR8-U1-116" target="W46r5qOGl9HjsOyR8-U1-118">
          <mxGeometry relative="1" as="geometry" />
        </mxCell>
        <mxCell id="W46r5qOGl9HjsOyR8-U1-116" value="" style="shape=mxgraph.bpmn.shape;html=1;verticalLabelPosition=bottom;labelBackgroundColor=#ffffff;verticalAlign=top;perimeter=ellipsePerimeter;outline=standard;symbol=general;" vertex="1" parent="1">
          <mxGeometry x="805" y="968" width="50" height="50" as="geometry" />
        </mxCell>
        <mxCell id="W46r5qOGl9HjsOyR8-U1-125" style="edgeStyle=orthogonalEdgeStyle;rounded=0;orthogonalLoop=1;jettySize=auto;html=1;entryX=0;entryY=0.5;entryDx=0;entryDy=0;" edge="1" parent="1" source="W46r5qOGl9HjsOyR8-U1-118" target="W46r5qOGl9HjsOyR8-U1-124">
          <mxGeometry relative="1" as="geometry" />
        </mxCell>
        <mxCell id="W46r5qOGl9HjsOyR8-U1-118" value="тип шага&lt;div&gt;(группы)&lt;/div&gt;" style="shape=hexagon;perimeter=hexagonPerimeter2;whiteSpace=wrap;html=1;fixedSize=1;" vertex="1" parent="1">
          <mxGeometry x="770" y="1050" width="120" height="80" as="geometry" />
        </mxCell>
        <mxCell id="W46r5qOGl9HjsOyR8-U1-119" value="вычислить&lt;div&gt;результат шага&lt;/div&gt;" style="rounded=1;whiteSpace=wrap;html=1;" vertex="1" parent="1">
          <mxGeometry x="375" y="890" width="120" height="60" as="geometry" />
        </mxCell>
        <mxCell id="W46r5qOGl9HjsOyR8-U1-121" value="&lt;font style=&quot;font-size: 9px;&quot;&gt;PARALLEL_ANY_OFF&lt;/font&gt;" style="text;html=1;align=center;verticalAlign=middle;resizable=0;points=[];autosize=1;strokeColor=none;fillColor=none;" vertex="1" parent="1">
          <mxGeometry x="880" y="1050" width="110" height="30" as="geometry" />
        </mxCell>
        <mxCell id="W46r5qOGl9HjsOyR8-U1-122" value="&lt;font style=&quot;font-size: 9px;&quot;&gt;SERIAL&lt;/font&gt;" style="text;html=1;align=center;verticalAlign=middle;resizable=0;points=[];autosize=1;strokeColor=none;fillColor=none;" vertex="1" parent="1">
          <mxGeometry x="770" y="1130" width="60" height="30" as="geometry" />
        </mxCell>
        <mxCell id="W46r5qOGl9HjsOyR8-U1-123" value="&lt;font style=&quot;font-size: 9px;&quot;&gt;PARALLEL_ALL_OFF&lt;/font&gt;" style="text;html=1;align=center;verticalAlign=middle;resizable=0;points=[];autosize=1;strokeColor=none;fillColor=none;" vertex="1" parent="1">
          <mxGeometry x="720" y="1150" width="110" height="30" as="geometry" />
        </mxCell>
        <mxCell id="W46r5qOGl9HjsOyR8-U1-127" style="edgeStyle=orthogonalEdgeStyle;rounded=0;orthogonalLoop=1;jettySize=auto;html=1;entryX=0;entryY=0.5;entryDx=0;entryDy=0;" edge="1" parent="1" source="W46r5qOGl9HjsOyR8-U1-124" target="W46r5qOGl9HjsOyR8-U1-126">
          <mxGeometry relative="1" as="geometry" />
        </mxCell>
        <mxCell id="W46r5qOGl9HjsOyR8-U1-141" style="edgeStyle=orthogonalEdgeStyle;rounded=1;orthogonalLoop=1;jettySize=auto;html=1;exitX=0.5;exitY=1;exitDx=0;exitDy=0;entryX=0;entryY=0.5;entryDx=0;entryDy=0;curved=0;" edge="1" parent="1" source="W46r5qOGl9HjsOyR8-U1-124" target="W46r5qOGl9HjsOyR8-U1-129">
          <mxGeometry relative="1" as="geometry">
            <mxPoint x="1210" y="1230" as="targetPoint" />
            <Array as="points">
              <mxPoint x="1040" y="1350" />
            </Array>
          </mxGeometry>
        </mxCell>
        <mxCell id="W46r5qOGl9HjsOyR8-U1-124" value="решение&amp;nbsp;&lt;div&gt;отказное?&lt;/div&gt;" style="shape=hexagon;perimeter=hexagonPerimeter2;whiteSpace=wrap;html=1;fixedSize=1;" vertex="1" parent="1">
          <mxGeometry x="980" y="1050" width="120" height="80" as="geometry" />
        </mxCell>
        <mxCell id="W46r5qOGl9HjsOyR8-U1-133" style="edgeStyle=orthogonalEdgeStyle;rounded=1;orthogonalLoop=1;jettySize=auto;html=1;entryX=0;entryY=0.5;entryDx=0;entryDy=0;curved=0;" edge="1" parent="1" source="W46r5qOGl9HjsOyR8-U1-126" target="W46r5qOGl9HjsOyR8-U1-132">
          <mxGeometry relative="1" as="geometry">
            <Array as="points">
              <mxPoint x="1300" y="1090" />
              <mxPoint x="1300" y="1230" />
            </Array>
          </mxGeometry>
        </mxCell>
        <mxCell id="W46r5qOGl9HjsOyR8-U1-143" style="edgeStyle=orthogonalEdgeStyle;rounded=1;orthogonalLoop=1;jettySize=auto;html=1;entryX=0;entryY=0.5;entryDx=0;entryDy=0;exitX=0.465;exitY=1.008;exitDx=0;exitDy=0;exitPerimeter=0;curved=0;" edge="1" parent="1" source="W46r5qOGl9HjsOyR8-U1-126" target="W46r5qOGl9HjsOyR8-U1-129">
          <mxGeometry relative="1" as="geometry" />
        </mxCell>
        <mxCell id="W46r5qOGl9HjsOyR8-U1-126" value="есть на шаге (группе)&amp;nbsp;&lt;div&gt;хотя бы 1&amp;nbsp;&lt;/div&gt;&lt;div&gt;согласие?&lt;/div&gt;" style="shape=hexagon;perimeter=hexagonPerimeter2;whiteSpace=wrap;html=1;fixedSize=1;" vertex="1" parent="1">
          <mxGeometry x="1150" y="1050" width="120" height="80" as="geometry" />
        </mxCell>
        <mxCell id="W46r5qOGl9HjsOyR8-U1-154" style="edgeStyle=orthogonalEdgeStyle;rounded=1;orthogonalLoop=1;jettySize=auto;html=1;entryX=0;entryY=0.5;entryDx=0;entryDy=0;curved=0;" edge="1" parent="1" source="W46r5qOGl9HjsOyR8-U1-129" target="W46r5qOGl9HjsOyR8-U1-134">
          <mxGeometry relative="1" as="geometry" />
        </mxCell>
        <mxCell id="W46r5qOGl9HjsOyR8-U1-129" value="is_approved = true" style="rounded=1;whiteSpace=wrap;html=1;" vertex="1" parent="1">
          <mxGeometry x="1340" y="1320" width="120" height="60" as="geometry" />
        </mxCell>
        <mxCell id="W46r5qOGl9HjsOyR8-U1-131" value="да" style="text;html=1;align=center;verticalAlign=middle;whiteSpace=wrap;rounded=0;" vertex="1" parent="1">
          <mxGeometry x="1150" y="1128" width="60" height="30" as="geometry" />
        </mxCell>
        <mxCell id="W46r5qOGl9HjsOyR8-U1-135" style="edgeStyle=orthogonalEdgeStyle;rounded=1;orthogonalLoop=1;jettySize=auto;html=1;curved=0;entryX=0;entryY=0.5;entryDx=0;entryDy=0;" edge="1" parent="1" source="W46r5qOGl9HjsOyR8-U1-132" target="W46r5qOGl9HjsOyR8-U1-134">
          <mxGeometry relative="1" as="geometry">
            <mxPoint x="1560.000000000001" y="1314.9999999999995" as="targetPoint" />
            <Array as="points">
              <mxPoint x="1510" y="1230" />
              <mxPoint x="1510" y="1283" />
            </Array>
          </mxGeometry>
        </mxCell>
        <mxCell id="W46r5qOGl9HjsOyR8-U1-132" value="is_approved = false" style="rounded=1;whiteSpace=wrap;html=1;" vertex="1" parent="1">
          <mxGeometry x="1340" y="1200" width="120" height="60" as="geometry" />
        </mxCell>
        <mxCell id="W46r5qOGl9HjsOyR8-U1-134" value="" style="shape=mxgraph.bpmn.shape;html=1;verticalLabelPosition=bottom;labelBackgroundColor=#ffffff;verticalAlign=top;perimeter=ellipsePerimeter;outline=end;symbol=general;" vertex="1" parent="1">
          <mxGeometry x="1560" y="1258" width="50" height="50" as="geometry" />
        </mxCell>
        <mxCell id="W46r5qOGl9HjsOyR8-U1-137" value="да" style="text;html=1;align=center;verticalAlign=middle;whiteSpace=wrap;rounded=0;" vertex="1" parent="1">
          <mxGeometry x="1080" y="1060" width="60" height="30" as="geometry" />
        </mxCell>
        <mxCell id="W46r5qOGl9HjsOyR8-U1-138" value="нет" style="text;html=1;align=center;verticalAlign=middle;whiteSpace=wrap;rounded=0;" vertex="1" parent="1">
          <mxGeometry x="1260" y="1060" width="60" height="30" as="geometry" />
        </mxCell>
        <mxCell id="W46r5qOGl9HjsOyR8-U1-142" value="нет" style="text;html=1;align=center;verticalAlign=middle;resizable=0;points=[];autosize=1;strokeColor=none;fillColor=none;" vertex="1" parent="1">
          <mxGeometry x="1000" y="1128" width="40" height="30" as="geometry" />
        </mxCell>
        <mxCell id="W46r5qOGl9HjsOyR8-U1-146" style="edgeStyle=orthogonalEdgeStyle;rounded=1;orthogonalLoop=1;jettySize=auto;html=1;entryX=0;entryY=0.5;entryDx=0;entryDy=0;curved=0;" edge="1" parent="1" source="W46r5qOGl9HjsOyR8-U1-144" target="W46r5qOGl9HjsOyR8-U1-132">
          <mxGeometry relative="1" as="geometry">
            <Array as="points">
              <mxPoint x="1170" y="1230" />
              <mxPoint x="1170" y="1230" />
            </Array>
          </mxGeometry>
        </mxCell>
        <mxCell id="W46r5qOGl9HjsOyR8-U1-162" style="edgeStyle=orthogonalEdgeStyle;rounded=0;orthogonalLoop=1;jettySize=auto;html=1;entryX=0.5;entryY=0;entryDx=0;entryDy=0;" edge="1" parent="1" source="W46r5qOGl9HjsOyR8-U1-144" target="W46r5qOGl9HjsOyR8-U1-158">
          <mxGeometry relative="1" as="geometry" />
        </mxCell>
        <mxCell id="W46r5qOGl9HjsOyR8-U1-144" value="решение&amp;nbsp;&lt;div&gt;отказное?&lt;/div&gt;" style="shape=hexagon;perimeter=hexagonPerimeter2;whiteSpace=wrap;html=1;fixedSize=1;" vertex="1" parent="1">
          <mxGeometry x="770" y="1190" width="120" height="80" as="geometry" />
        </mxCell>
        <mxCell id="W46r5qOGl9HjsOyR8-U1-145" style="edgeStyle=orthogonalEdgeStyle;rounded=0;orthogonalLoop=1;jettySize=auto;html=1;entryX=0.5;entryY=0;entryDx=0;entryDy=0;" edge="1" parent="1" source="W46r5qOGl9HjsOyR8-U1-118" target="W46r5qOGl9HjsOyR8-U1-144">
          <mxGeometry relative="1" as="geometry" />
        </mxCell>
        <mxCell id="W46r5qOGl9HjsOyR8-U1-147" value="да" style="text;html=1;align=center;verticalAlign=middle;resizable=0;points=[];autosize=1;strokeColor=none;fillColor=none;" vertex="1" parent="1">
          <mxGeometry x="880" y="1198" width="40" height="30" as="geometry" />
        </mxCell>
        <mxCell id="W46r5qOGl9HjsOyR8-U1-149" value="нет" style="text;html=1;align=center;verticalAlign=middle;resizable=0;points=[];autosize=1;strokeColor=none;fillColor=none;" vertex="1" parent="1">
          <mxGeometry x="780" y="1268" width="40" height="30" as="geometry" />
        </mxCell>
        <mxCell id="W46r5qOGl9HjsOyR8-U1-157" value="" style="endArrow=none;dashed=1;html=1;rounded=0;exitX=1;exitY=0.5;exitDx=0;exitDy=0;entryX=0;entryY=0.5;entryDx=0;entryDy=0;" edge="1" parent="1" source="W46r5qOGl9HjsOyR8-U1-119" target="W46r5qOGl9HjsOyR8-U1-155">
          <mxGeometry width="50" height="50" relative="1" as="geometry">
            <mxPoint x="1100" y="1210" as="sourcePoint" />
            <mxPoint x="1150" y="1160" as="targetPoint" />
          </mxGeometry>
        </mxCell>
        <mxCell id="W46r5qOGl9HjsOyR8-U1-159" style="edgeStyle=orthogonalEdgeStyle;rounded=0;orthogonalLoop=1;jettySize=auto;html=1;entryX=0;entryY=0.5;entryDx=0;entryDy=0;" edge="1" parent="1" source="W46r5qOGl9HjsOyR8-U1-158" target="W46r5qOGl9HjsOyR8-U1-129">
          <mxGeometry relative="1" as="geometry" />
        </mxCell>
        <mxCell id="W46r5qOGl9HjsOyR8-U1-165" style="edgeStyle=orthogonalEdgeStyle;rounded=1;orthogonalLoop=1;jettySize=auto;html=1;entryX=0;entryY=0.5;entryDx=0;entryDy=0;exitX=0.5;exitY=1;exitDx=0;exitDy=0;curved=0;" edge="1" parent="1" source="W46r5qOGl9HjsOyR8-U1-158" target="W46r5qOGl9HjsOyR8-U1-132">
          <mxGeometry relative="1" as="geometry">
            <Array as="points">
              <mxPoint x="830" y="1410" />
              <mxPoint x="1300" y="1410" />
              <mxPoint x="1300" y="1230" />
            </Array>
          </mxGeometry>
        </mxCell>
        <mxCell id="W46r5qOGl9HjsOyR8-U1-158" value="все остальные&lt;div&gt;решения&lt;/div&gt;&lt;div&gt;согласительные?&lt;/div&gt;" style="shape=hexagon;perimeter=hexagonPerimeter2;whiteSpace=wrap;html=1;fixedSize=1;" vertex="1" parent="1">
          <mxGeometry x="770" y="1310" width="120" height="80" as="geometry" />
        </mxCell>
        <mxCell id="W46r5qOGl9HjsOyR8-U1-163" value="да" style="text;html=1;align=center;verticalAlign=middle;resizable=0;points=[];autosize=1;strokeColor=none;fillColor=none;" vertex="1" parent="1">
          <mxGeometry x="880" y="1318" width="40" height="30" as="geometry" />
        </mxCell>
        <mxCell id="W46r5qOGl9HjsOyR8-U1-164" value="нет" style="text;html=1;align=center;verticalAlign=middle;resizable=0;points=[];autosize=1;strokeColor=none;fillColor=none;" vertex="1" parent="1">
          <mxGeometry x="780" y="1388" width="40" height="30" as="geometry" />
        </mxCell>
        <mxCell id="W46r5qOGl9HjsOyR8-U1-166" value="Вычисление результатов шага (группы)" style="text;html=1;align=center;verticalAlign=middle;whiteSpace=wrap;rounded=0;" vertex="1" parent="1">
          <mxGeometry x="1065" y="968" width="230" height="30" as="geometry" />
        </mxCell>
        <mxCell id="W46r5qOGl9HjsOyR8-U1-167" value="вычислить&lt;div&gt;результат группы&lt;/div&gt;" style="rounded=1;whiteSpace=wrap;html=1;" vertex="1" parent="1">
          <mxGeometry x="380" y="1228" width="120" height="60" as="geometry" />
        </mxCell>
        <mxCell id="W46r5qOGl9HjsOyR8-U1-169" style="edgeStyle=orthogonalEdgeStyle;rounded=0;orthogonalLoop=1;jettySize=auto;html=1;entryX=0.457;entryY=0.075;entryDx=0;entryDy=0;entryPerimeter=0;" edge="1" parent="1" source="W46r5qOGl9HjsOyR8-U1-57" target="W46r5qOGl9HjsOyR8-U1-167">
          <mxGeometry relative="1" as="geometry" />
        </mxCell>
        <mxCell id="W46r5qOGl9HjsOyR8-U1-171" value="" style="edgeStyle=orthogonalEdgeStyle;rounded=0;orthogonalLoop=1;jettySize=auto;html=1;entryX=1;entryY=0.5;entryDx=0;entryDy=0;" edge="1" parent="1" source="W46r5qOGl9HjsOyR8-U1-22" target="W46r5qOGl9HjsOyR8-U1-170">
          <mxGeometry relative="1" as="geometry">
            <mxPoint x="180" y="590" as="sourcePoint" />
            <mxPoint x="-60" y="590" as="targetPoint" />
          </mxGeometry>
        </mxCell>
        <mxCell id="W46r5qOGl9HjsOyR8-U1-170" value="вычислить&lt;div&gt;результат маршрута&lt;/div&gt;" style="rounded=1;whiteSpace=wrap;html=1;" vertex="1" parent="1">
          <mxGeometry y="560" width="120" height="60" as="geometry" />
        </mxCell>
      </root>
    </mxGraphModel>
  </diagram>
</mxfile>
